Poster: 
http://imgr.us/images/ry64lom816tv72hb4y8e.jpg

Info:

Format : AVI
Format/Info : Audio Video Interleave
File size : 697 MiB
Duration : 2h 17mn
Overall bit rate mode : Variable
Overall bit rate : 707 Kbps

Video
ID : 0
Format : MPEG-4 Visual
Format profile : Advanced Simple@L5
Format settings, BVOP : 2
Format settings, QPel : No
Format settings, GMC : No warppoints
Format settings, Matrix : Default (H.263)
Codec ID : XVID
Codec ID/Hint : XviD
Duration : 2h 17mn
Bit rate : 601 Kbps
Width : 592 pixels
Height : 256 pixels
Display aspect ratio : 2.35:1
Frame rate : 25.000 fps
Color space : YUV
Chroma subsampling : 4:2:0
Bit depth : 8 bits
Scan type : Progressive
Compression mode : Lossy
Bits/(Pixel*Frame) : 0.159
Stream size : 593 MiB (85%)
Writing library : XviD 1.2.1 (UTC 2008-12-04)

Audio
ID : 1
Format : MPEG Audio
Format version : Version 1
Format profile : Layer 3
Mode : Joint stereo
Mode extension : MS Stereo
Codec ID : 55
Codec ID/Hint : MP3
Duration : 2h 17mn
Bit rate mode : Variable
Bit rate : 96.0 Kbps
Channel(s) : 2 channels
Sampling rate : 32.0 KHz
Compression mode : Lossy
Stream size : 94.3 MiB (14%)
Alignment : Aligned on interleaves
Interleave, duration : 36 ms (0.90 video frame)
Interleave, preload duration : 229 ms
Title : RACE 2 Tc0 L2 2ch 48 128 DELAY 0ms
Writing library : LAME3.99r
Encoding settings : -m j -V 4 -q 2 -lowpass 15.1 --abr 96


Screens: 
http://imgr.us/images/m5un3nll1rs08xqeud02.jpg 
http://imgr.us/images/pr4jvkya927apak5w7s9.jpg 
http://imgr.us/images/lg25apo1570uq0p017po.jpg 
http://imgr.us/images/2uv4b690jb26a8f6kws.jpg


